<?xml version="1.0" encoding="iso-8859-1"?>
<svg xmlns="http://www.w3.org/2000/svg" xmlns:xlink="http://www.w3.org/1999/xlink" version="1.1" viewBox="0 0 470 470" enable-background="new 0 0 470 470" width="512px" height="512px">
  <g>
    <path d="m458.739,286.94c-0.142-68.941-26.604-134.161-74.549-183.705l-4.422-4.569c-1.413-1.46-3.358-2.284-5.39-2.284h-73.138v-1.235l11.373-32.754c0.704-2.027 0.506-4.26-0.545-6.131s-2.853-3.203-4.95-3.658l-241.788-52.433c-2.653-0.575-5.405,0.326-7.203,2.356-1.799,2.03-2.361,4.873-1.472,7.434l29.585,85.187v44.895c-47.03,34.343-75,89.158-75,147.457 0,100.631 81.869,182.5 182.5,182.5s182.5-81.869 182.5-182.5c0-57.543-27.244-111.699-73.174-146.118h55.147c35.834,40.273 55.527,92.029 55.527,146.119 0,4.142 3.357,7.5 7.5,7.5h30c4.162,0 7.52-3.358 7.52-7.5 0-0.189-0.007-0.376-0.021-0.561zm-163.072-221.471l-7.262,20.914h-24.665c-4.143,0-7.5,3.358-7.5,7.5s3.357,7.5 7.5,7.5h22.5v35h-185v-35h132.5c4.143,0 7.5-3.358 7.5-7.5s-3.357-7.5-7.5-7.5h-134.665l-23.866-68.722 220.458,47.808zm65.573,222.031c0,92.36-75.141,167.5-167.5,167.5s-167.5-75.14-167.5-167.5c0-53.949 26.102-104.648 69.919-136.118h195.162c43.817,31.47 69.919,82.169 69.919,136.118zm67.382-7.5c-1.774-56.214-23.472-109.646-61.549-151.187-1.42-1.55-3.426-2.432-5.528-2.432h-60.305v-15h69.96l2.211,2.285c43.612,45.066 68.381,103.88 70.219,166.334h-15.008z" fill="#3c3c3c"/>
    <path d="m266.238,300c-16.193,0-23.81-4.202-32.628-9.067-9.289-5.124-19.816-10.933-39.874-10.933-20.057,0-30.585,5.809-39.873,10.933-8.818,4.865-16.434,9.067-32.626,9.067s-23.809-4.202-32.626-9.067c-9.288-5.124-19.815-10.933-39.871-10.933-4.143,0-7.5,3.358-7.5,7.5 0,34.862 12.126,68.975 34.144,96.056 2.613,3.213 7.336,3.702 10.551,1.088 3.214-2.613 3.701-7.337 1.088-10.551-18.19-22.373-28.892-50.071-30.555-78.729 11.152,1.12 17.614,4.685 24.897,8.704 9.288,5.124 19.816,10.932 39.872,10.932 20.056,0 30.584-5.809 39.872-10.933 8.818-4.865 16.434-9.067 32.627-9.067s23.81,4.202 32.628,9.067c9.289,5.125 19.816,10.933 39.874,10.933s30.585-5.809 39.874-10.933c7.285-4.019 13.748-7.585 24.906-8.704-4.087,72.175-64.098,129.637-137.278,129.637-31.427,0-62.179-10.932-86.593-30.782-3.215-2.615-7.938-2.125-10.551,1.088-2.613,3.214-2.126,7.938 1.088,10.551 27.081,22.017 61.194,34.143 96.056,34.143 84.089,0 152.5-68.411 152.5-152.5 0-4.142-3.357-7.5-7.5-7.5-20.058,0-30.585,5.809-39.874,10.933-8.818,4.866-16.434,9.067-32.628,9.067z" fill="#3c3c3c"/>
  </g>
</svg>
