<?xml version="1.0" standalone="no"?>
<!DOCTYPE svg PUBLIC "-//W3C//DTD SVG 20010904//EN"
 "http://www.w3.org/TR/2001/REC-SVG-20010904/DTD/svg10.dtd">
<svg version="1.0" xmlns="http://www.w3.org/2000/svg"
 width="512.000000pt" height="512.000000pt" viewBox="0 0 512.000000 512.000000"
 preserveAspectRatio="xMidYMid meet">

<g transform="translate(0.000000,512.000000) scale(0.100000,-0.100000)"
fill="#000000" stroke="none">
<path d="M3151 5105 c-263 -74 -388 -408 -253 -678 102 -205 318 -285 511
-190 77 37 141 105 184 193 107 217 52 476 -128 612 -89 68 -211 92 -314 63z"/>
<path d="M1781 4640 c-113 -41 -219 -155 -257 -274 -9 -28 -19 -94 -21 -146
-4 -79 -1 -109 16 -168 41 -135 140 -247 261 -293 84 -32 194 -25 282 19 144
71 239 233 241 411 1 191 -89 355 -238 431 -86 43 -198 51 -284 20z"/>
<path d="M2795 4011 c-60 -27 -87 -65 -185 -262 l-89 -177 53 -99 c29 -54 159
-308 289 -564 258 -511 263 -525 237 -636 l-13 -54 42 -43 c35 -36 53 -46 100
-55 42 -8 70 -22 100 -47 80 -69 76 -40 76 -579 0 -538 4 -510 -75 -577 l-40
-35 0 -96 c0 -179 33 -252 135 -302 48 -24 64 -27 120 -23 100 8 179 72 205
167 6 21 10 175 10 362 l0 326 -41 6 c-64 8 -129 54 -158 112 l-26 49 0 471 0
470 27 46 c34 58 94 100 153 106 l45 6 2 266 3 266 99 -195 c54 -107 109 -209
121 -226 l24 -31 -117 -116 c-72 -72 -125 -117 -137 -117 -11 0 -31 -7 -43
-16 l-22 -15 0 -443 c0 -366 2 -446 14 -462 14 -18 30 -19 436 -19 l422 0 19
24 c19 23 19 41 17 463 -3 422 -4 440 -22 454 -11 8 -29 14 -40 14 -13 0 -65
44 -138 117 l-117 116 25 43 c18 30 26 59 27 96 1 50 -12 79 -267 583 -148
292 -280 546 -295 565 -15 19 -47 45 -71 58 -44 22 -49 22 -455 22 -376 0
-413 -2 -450 -19z m1518 -1489 l92 -92 -260 0 -260 0 93 93 92 92 75 0 76 -1
92 -92z"/>
<path d="M1443 3549 c-23 -11 -53 -35 -66 -52 -13 -18 -146 -273 -295 -568
-298 -588 -293 -576 -251 -668 l20 -45 -123 -123 c-97 -97 -128 -123 -150
-123 -58 0 -58 -2 -58 -475 0 -373 2 -433 16 -453 l15 -22 423 0 c397 0 424 1
439 18 15 16 17 51 17 289 l0 270 47 -23 c25 -13 62 -24 81 -24 l34 0 -4 -262
c-3 -233 -5 -267 -22 -301 -26 -52 -92 -106 -138 -113 l-38 -7 0 -336 c0 -332
0 -337 24 -386 28 -60 56 -87 116 -114 115 -52 249 1 304 119 21 44 21 59 24
723 l3 677 44 0 45 0 2 -693 3 -694 30 -49 c77 -124 240 -149 349 -53 79 70
80 78 84 460 l3 337 -44 6 c-69 11 -130 55 -161 117 l-26 53 0 258 0 258 40 0
c22 0 57 7 77 15 19 8 37 15 39 15 2 0 4 -121 4 -270 0 -256 1 -270 19 -280
13 -6 168 -10 435 -10 364 0 417 2 430 16 14 14 16 69 16 459 0 486 1 475 -58
475 -21 0 -52 25 -141 114 l-114 114 28 56 c50 102 54 91 -254 696 -150 294
-282 546 -294 559 -12 13 -40 32 -62 42 -37 17 -73 19 -455 19 -400 0 -417 -1
-457 -21z m-63 -1239 c0 -318 -1 -340 -18 -340 -9 0 -66 49 -126 109 l-108
108 28 40 c16 22 72 126 124 232 52 105 96 191 97 191 2 0 3 -153 3 -340z
m1197 45 c30 -60 62 -118 71 -128 14 -16 13 -21 -24 -60 -93 -101 -189 -197
-196 -197 -5 0 -8 154 -8 343 l0 342 51 -95 c28 -52 76 -144 106 -205z m-1578
-201 c54 -2 55 -3 145 -93 l91 -91 -260 0 -260 0 100 100 c70 70 104 98 115
93 8 -3 39 -7 69 -9z m1964 -92 l92 -92 -255 0 -255 0 93 93 92 92 70 -1 71 0
92 -92z"/>
<path d="M2730 772 c0 -119 20 -182 74 -237 53 -52 99 -68 182 -63 50 3 72 10
106 34 83 58 108 118 108 262 l0 92 -235 0 -235 0 0 -88z"/>
</g>
</svg>
