<?xml version="1.0" standalone="no"?>
<!DOCTYPE svg PUBLIC "-//W3C//DTD SVG 20010904//EN"
 "http://www.w3.org/TR/2001/REC-SVG-20010904/DTD/svg10.dtd">
<svg version="1.0" xmlns="http://www.w3.org/2000/svg"
 width="512.000000pt" height="512.000000pt" viewBox="0 0 512.000000 512.000000"
 preserveAspectRatio="xMidYMid meet">

<g transform="translate(0.000000,512.000000) scale(0.100000,-0.100000)"
fill="#000000" stroke="none">
<path d="M1381 4674 c-151 -40 -283 -119 -422 -252 -111 -105 -188 -200 -295
-362 -404 -612 -715 -1669 -655 -2224 73 -667 554 -1199 1219 -1349 83 -18
128 -22 312 -22 189 0 227 3 319 23 402 90 742 322 964 657 283 429 326 871
152 1575 -150 604 -414 1185 -697 1535 -84 103 -226 239 -307 294 -81 55 -187
104 -272 125 -81 20 -244 20 -318 0z"/>
<path d="M4029 4145 c-213 -34 -448 -106 -699 -212 -167 -71 -385 -177 -394
-191 -3 -5 26 -85 65 -178 184 -439 320 -956 360 -1361 14 -145 7 -394 -16
-523 -35 -198 -121 -431 -221 -602 -112 -190 -309 -416 -462 -528 -34 -25 -61
-48 -62 -51 0 -9 161 -46 259 -60 121 -17 401 -6 516 20 131 31 237 67 351
121 375 179 643 489 943 1089 325 648 494 1324 441 1761 -46 372 -222 602
-535 696 -81 24 -109 27 -275 30 -126 2 -213 -1 -271 -11z"/>
</g>
</svg>
