<?xml version="1.0" standalone="no"?>
<!DOCTYPE svg PUBLIC "-//W3C//DTD SVG 20010904//EN"
 "http://www.w3.org/TR/2001/REC-SVG-20010904/DTD/svg10.dtd">
<svg version="1.0" xmlns="http://www.w3.org/2000/svg"
 width="512.000000pt" height="512.000000pt" viewBox="0 0 512.000000 512.000000"
 preserveAspectRatio="xMidYMid meet">

<g transform="translate(0.000000,512.000000) scale(0.100000,-0.100000)"
fill="#000000" stroke="none">
<path d="M1709 4662 c-151 -50 -264 -187 -290 -351 -28 -184 67 -364 238 -448
67 -33 86 -38 167 -41 135 -6 243 35 331 125 209 213 147 565 -122 694 -61 30
-79 33 -168 36 -76 2 -113 -1 -156 -15z"/>
<path d="M3125 4604 c-136 -33 -252 -138 -303 -274 -62 -168 -22 -340 108
-464 239 -228 614 -133 720 184 63 188 -30 416 -209 514 -54 29 -163 56 -221
55 -19 0 -62 -7 -95 -15z"/>
<path d="M1704 3771 c-293 -80 -526 -335 -623 -681 -46 -168 -68 -425 -52
-630 4 -63 7 -116 6 -118 -1 -1 -21 4 -44 12 -49 18 -161 89 -247 157 -115 91
-189 108 -306 68 -187 -63 -337 -248 -397 -489 -41 -168 -54 -376 -26 -429 33
-65 134 -51 149 21 3 13 12 73 21 133 8 61 22 130 30 155 13 41 13 28 8 -150
-5 -167 -4 -203 11 -246 12 -38 22 -163 41 -529 22 -424 27 -483 43 -505 41
-54 123 -56 158 -3 15 23 20 77 35 371 9 189 19 345 21 348 2 2 10 -121 17
-274 18 -381 23 -427 52 -458 31 -34 100 -34 134 0 31 31 31 34 55 546 18 381
23 443 42 503 21 68 21 70 6 345 -8 152 -14 278 -13 279 1 2 28 -7 61 -19 92
-33 273 -29 347 9 57 29 67 63 67 223 0 221 25 396 77 550 29 86 62 153 63
128 0 -9 -20 -182 -45 -385 -25 -202 -45 -397 -45 -433 0 -76 17 -145 55 -227
l27 -58 35 -710 c38 -785 36 -773 105 -815 46 -28 115 -27 158 3 70 46 68 32
92 588 12 277 26 490 30 474 4 -17 16 -241 27 -499 23 -518 23 -519 90 -563
46 -31 116 -31 162 0 68 45 65 20 99 802 l32 710 30 67 c16 37 37 103 45 145
16 78 16 78 -34 493 -28 228 -50 416 -48 418 6 7 65 -148 84 -223 31 -118 51
-300 51 -466 0 -135 2 -148 23 -180 15 -22 38 -39 65 -49 37 -13 47 -13 84 0
66 24 78 49 99 212 26 208 68 385 113 483 l14 30 1 -49 c1 -27 -53 -308 -119
-625 -66 -317 -118 -586 -115 -598 3 -12 15 -32 27 -43 19 -17 35 -20 130 -20
59 0 108 -1 108 -2 0 -120 53 -1015 61 -1031 65 -126 230 -121 279 8 6 17 22
243 36 515 24 463 28 519 39 508 3 -3 16 -231 30 -507 18 -373 28 -509 39
-529 47 -90 164 -115 234 -50 51 48 51 51 78 571 14 270 27 498 29 505 3 8 34
12 108 12 95 0 105 2 125 23 15 16 22 36 22 62 0 21 -52 293 -115 604 -118
578 -140 726 -78 541 40 -121 59 -212 79 -386 18 -154 30 -189 77 -208 65 -28
173 -56 213 -56 33 0 127 21 207 47 15 5 17 -4 17 -98 0 -95 -8 -135 -84 -458
-60 -251 -82 -361 -76 -376 10 -27 36 -35 117 -35 l62 0 5 -52 c3 -29 11 -172
17 -318 6 -146 15 -280 21 -298 24 -81 148 -86 178 -7 8 20 39 506 41 638 0
31 2 37 8 22 4 -11 13 -153 20 -315 7 -162 17 -312 22 -332 12 -46 42 -68 92
-68 29 0 46 7 66 28 32 32 33 36 52 449 l13 253 68 0 c56 0 72 4 89 21 25 25
31 -10 -67 431 -76 347 -93 456 -48 318 14 -41 32 -124 40 -185 20 -148 22
-153 44 -175 26 -26 84 -26 110 0 29 29 34 61 27 189 -16 299 -99 510 -262
659 -37 34 -96 76 -129 92 -131 64 -208 50 -362 -67 -118 -89 -191 -137 -240
-158 -62 -26 -64 -24 -64 63 0 182 -38 440 -87 596 -101 322 -312 574 -564
672 -66 26 -86 29 -184 29 -97 0 -118 -3 -173 -27 -151 -64 -324 -215 -427
-371 l-58 -89 -41 79 c-151 290 -395 467 -661 479 -68 3 -107 0 -161 -15z"/>
<path d="M442 3192 c-73 -27 -122 -69 -157 -137 -26 -51 -30 -69 -29 -134 0
-88 19 -133 81 -195 55 -56 114 -80 193 -80 159 1 278 117 282 276 5 192 -190
334 -370 270z"/>
<path d="M4499 3195 c-64 -20 -141 -92 -168 -156 -45 -103 -24 -228 52 -307
109 -114 291 -116 403 -3 57 57 79 113 78 201 0 86 -21 136 -81 196 -70 71
-189 99 -284 69z"/>
</g>
</svg>
