<?xml version="1.0" standalone="no"?>
<!DOCTYPE svg PUBLIC "-//W3C//DTD SVG 20010904//EN"
 "http://www.w3.org/TR/2001/REC-SVG-20010904/DTD/svg10.dtd">
<svg version="1.0" xmlns="http://www.w3.org/2000/svg"
 width="512.000000pt" height="512.000000pt" viewBox="0 0 512.000000 512.000000"
 preserveAspectRatio="xMidYMid meet">

<g transform="translate(0.000000,512.000000) scale(0.100000,-0.100000)"
fill="#000000" stroke="none">
<path d="M4610 5113 c-135 -6 -391 -35 -560 -64 -172 -29 -497 -104 -513 -118
-4 -5 1 -48 12 -98 124 -570 564 -1055 1123 -1237 134 -44 246 -72 253 -64 13
13 95 366 120 512 36 217 52 371 65 623 15 278 9 313 -58 383 -30 31 -61 52
-87 59 -37 10 -191 12 -355 4z m-189 -646 c98 -65 87 -207 -18 -258 -128 -62
-257 74 -191 200 41 78 138 105 209 58z"/>
<path d="M3095 4776 c-596 -263 -996 -609 -1308 -1131 -45 -75 -160 -309 -200
-405 -130 -316 -235 -728 -282 -1104 -8 -65 -16 -121 -19 -123 -2 -3 -262 -22
-578 -44 -315 -21 -583 -41 -595 -44 -13 -3 -38 -19 -58 -36 -67 -59 -68 -159
-2 -216 21 -18 232 -112 579 -258 l547 -230 236 -555 c147 -344 247 -566 263
-583 50 -52 140 -60 196 -16 55 43 55 44 97 662 22 320 41 587 44 593 2 6 36
14 77 18 113 12 349 52 498 86 753 171 1335 498 1737 975 110 129 255 347 337
505 59 113 169 360 163 366 -1 1 -45 14 -97 29 -251 70 -445 156 -630 280
-418 279 -709 689 -830 1170 -17 68 -33 111 -42 112 -7 1 -67 -22 -133 -51z"/>
</g>
</svg>
