<?xml version="1.0" standalone="no"?>
<!DOCTYPE svg PUBLIC "-//W3C//DTD SVG 20010904//EN"
 "http://www.w3.org/TR/2001/REC-SVG-20010904/DTD/svg10.dtd">
<svg version="1.0" xmlns="http://www.w3.org/2000/svg"
 width="512.000000pt" height="512.000000pt" viewBox="0 0 512.000000 512.000000"
 preserveAspectRatio="xMidYMid meet">

<g transform="translate(0.000000,512.000000) scale(0.100000,-0.100000)"
fill="#000000" stroke="none">
<path d="M897 4448 c-92 -370 -167 -679 -167 -685 0 -10 82 -13 378 -13 l377
0 95 380 95 380 885 0 885 0 95 -380 95 -380 377 0 c296 0 378 3 378 13 0 6
-75 315 -167 685 l-168 672 -1495 0 -1495 0 -168 -672z"/>
<path d="M1901 4173 c-31 -117 -101 -404 -101 -413 0 -7 240 -10 760 -10 520
0 760 3 760 10 0 9 -70 296 -101 413 l-10 37 -649 0 -649 0 -10 -37z"/>
<path d="M342 3153 l3 -298 2215 0 2215 0 3 298 2 297 -2220 0 -2220 0 2 -297z"/>
<path d="M735 2518 c3 -18 73 -575 155 -1238 82 -663 153 -1222 156 -1242 l6
-38 1508 0 1508 0 6 38 c3 20 74 579 156 1242 82 663 152 1220 155 1238 l6 32
-1831 0 -1831 0 6 -32z m2082 -665 c81 -142 149 -262 151 -268 2 -7 -204 -134
-248 -153 -3 -1 -40 56 -81 128 -41 71 -76 130 -79 130 -3 0 -38 -59 -79 -130
l-74 -130 -56 31 c-174 98 -201 115 -199 124 2 6 70 126 151 268 l149 257 108
0 108 0 149 -257z m-719 -658 c67 -38 122 -74 122 -79 0 -5 -29 -59 -64 -120
-95 -163 -103 -146 73 -146 l151 0 0 -150 0 -150 -303 0 -303 0 -55 97 -56 97
105 180 c57 100 125 218 151 263 25 45 49 81 52 80 3 -1 60 -33 127 -72z
m1355 -449 c1 -2 -23 -47 -52 -100 l-55 -96 -303 0 -303 0 0 150 0 150 151 0
c176 0 168 -17 73 146 -35 61 -64 115 -64 120 0 5 57 41 127 81 l127 72 149
-259 c82 -142 150 -261 150 -264z"/>
</g>
</svg>
