<?xml version="1.0" standalone="no"?>
<!DOCTYPE svg PUBLIC "-//W3C//DTD SVG 20010904//EN"
 "http://www.w3.org/TR/2001/REC-SVG-20010904/DTD/svg10.dtd">
<svg version="1.0" xmlns="http://www.w3.org/2000/svg"
 width="512.000000pt" height="512.000000pt" viewBox="0 0 512.000000 512.000000"
 preserveAspectRatio="xMidYMid meet">

<g transform="translate(0.000000,512.000000) scale(0.100000,-0.100000)"
fill="#000000" stroke="none">
<path d="M395 3758 c-53 -19 -87 -50 -111 -102 l-24 -51 0 -677 0 -678 2300 0
2300 0 -2 694 -3 694 -30 43 c-16 23 -50 53 -74 66 l-44 23 -2141 -1 c-1485 0
-2150 -4 -2171 -11z m508 -599 c46 -12 110 -68 127 -109 7 -17 11 -55 8 -89
-5 -70 -38 -120 -99 -151 l-40 -21 71 -79 c79 -91 90 -127 45 -156 -38 -25
-60 -10 -156 101 l-84 96 -5 -91 c-4 -76 -8 -94 -24 -106 -27 -19 -52 -18 -76
6 -19 19 -20 33 -20 295 0 333 -7 315 128 315 48 0 104 -5 125 -11z m572 -14
c29 -28 31 -42 9 -73 -14 -20 -23 -22 -105 -22 l-89 0 0 -70 0 -70 79 0 c86 0
111 -12 111 -53 0 -47 -39 -67 -131 -67 l-59 0 0 -65 0 -65 90 0 c84 0 91 -2
106 -25 19 -29 11 -60 -21 -81 -32 -21 -253 -17 -279 5 -15 12 -16 43 -14 300
l3 285 25 13 c16 8 67 13 138 13 107 0 114 -1 137 -25z m413 10 c108 -32 149
-75 123 -131 -14 -31 -56 -32 -106 -2 -50 29 -118 30 -146 2 -36 -37 -19 -57
88 -99 115 -46 165 -86 183 -150 16 -59 6 -107 -32 -151 -66 -75 -167 -97
-276 -60 -56 19 -132 81 -132 108 0 24 39 68 60 68 10 0 31 -11 47 -24 45 -37
73 -48 124 -49 38 -1 54 4 74 23 51 48 25 78 -111 131 -48 19 -99 46 -114 60
-35 32 -55 95 -46 144 10 52 68 112 125 129 60 19 77 19 139 1z m536 5 c37
-14 50 -44 34 -78 -13 -26 -17 -27 -108 -32 l-95 -5 0 -65 0 -65 80 -3 c86 -3
115 -18 115 -57 0 -41 -35 -60 -121 -64 l-80 -3 3 -62 3 -61 95 -5 c92 -5 95
-6 108 -33 12 -24 11 -31 -2 -52 -20 -31 -59 -38 -185 -33 -80 2 -104 7 -118
21 -16 16 -18 44 -21 275 -3 273 1 306 40 322 31 12 220 12 252 0z m417 -1
c90 -30 145 -111 137 -200 -6 -63 -45 -121 -97 -145 -22 -11 -40 -21 -41 -24
0 -3 32 -41 70 -85 42 -48 70 -89 70 -102 0 -43 -54 -77 -86 -55 -6 4 -50 51
-97 105 l-87 97 0 -78 c0 -65 -4 -84 -21 -106 -23 -30 -45 -33 -77 -10 -22 15
-22 17 -22 299 0 282 0 284 22 299 27 19 177 22 229 5z m291 -6 c8 -10 41 -96
74 -190 32 -95 61 -169 65 -165 3 4 32 81 63 172 31 90 64 172 73 182 28 31
79 21 93 -18 8 -19 -11 -81 -86 -296 -52 -150 -102 -279 -111 -285 -26 -20
-60 -15 -80 11 -10 13 -58 143 -108 288 -88 261 -89 265 -72 291 21 32 66 36
89 10z m762 -4 c30 -23 33 -45 10 -77 -14 -20 -23 -22 -105 -22 l-89 0 0 -70
0 -70 85 0 c82 0 86 -1 97 -25 16 -35 0 -77 -32 -86 -14 -4 -53 -7 -87 -8
l-63 -1 0 -65 0 -65 89 0 c82 0 91 -2 105 -22 23 -32 20 -54 -11 -78 -25 -20
-37 -21 -149 -18 -84 2 -126 7 -138 17 -15 12 -16 43 -14 300 l3 285 25 13
c16 8 67 13 136 13 98 0 115 -3 138 -21z m421 -3 c92 -42 143 -129 152 -256
10 -141 -46 -260 -146 -312 -52 -27 -60 -28 -175 -26 -117 3 -121 4 -133 28
-9 18 -13 96 -13 288 0 324 -11 302 153 302 96 0 119 -3 162 -24z"/>
<path d="M772 2978 l3 -73 46 1 c64 0 99 25 99 69 0 48 -37 75 -102 75 l-49 0
3 -72z"/>
<path d="M2710 2974 l0 -77 50 6 c63 8 88 21 96 53 14 57 -28 94 -107 94 l-39
0 0 -76z"/>
<path d="M4120 2860 l0 -190 63 0 c116 0 162 56 162 195 -1 134 -46 185 -162
185 l-63 0 0 -190z"/>
<path d="M51 1936 c-47 -26 -50 -46 -51 -284 0 -243 5 -267 55 -290 38 -17
4972 -17 5010 0 50 23 55 48 55 288 0 240 -5 265 -55 288 -40 19 -4980 17
-5014 -2z"/>
</g>
</svg>
