<?xml version="1.0" standalone="no"?>
<!DOCTYPE svg PUBLIC "-//W3C//DTD SVG 20010904//EN"
 "http://www.w3.org/TR/2001/REC-SVG-20010904/DTD/svg10.dtd">
<svg version="1.0" xmlns="http://www.w3.org/2000/svg"
 width="512.000000pt" height="512.000000pt" viewBox="0 0 512.000000 512.000000"
 preserveAspectRatio="xMidYMid meet">

<g transform="translate(0.000000,512.000000) scale(0.100000,-0.100000)"
fill="#000000" stroke="none">
<path d="M2757 3829 c-11 -6 -25 -26 -33 -45 -13 -30 -12 -43 0 -98 40 -169
57 -342 63 -606 5 -242 -7 -521 -23 -564 -7 -19 -38 -21 -51 -3 -6 6 -41 111
-78 232 -150 492 -345 975 -421 1043 -33 29 -88 29 -283 1 -260 -38 -551 -126
-573 -175 -7 -16 -5 -62 8 -161 29 -223 22 -795 -12 -905 -7 -22 -35 -31 -50
-16 -7 7 -24 65 -38 128 -47 210 -167 573 -232 701 -24 48 -69 79 -116 79 -46
0 -286 -157 -440 -287 -232 -196 -384 -421 -450 -663 -30 -112 -32 -338 -4
-440 116 -426 557 -651 1436 -734 306 -29 666 -39 1279 -33 584 5 729 11 1021
43 803 86 1235 322 1337 729 27 109 24 315 -5 425 -54 199 -163 372 -357 565
-127 127 -257 234 -403 330 -87 58 -129 63 -170 21 l-26 -25 -1 -293 c-1 -289
-17 -509 -38 -536 -6 -7 -19 -12 -30 -10 -17 3 -27 31 -67 193 -27 105 -72
260 -102 345 -105 297 -242 600 -288 632 -32 23 -284 81 -465 108 -177 26
-363 35 -388 19z"/>
</g>
</svg>
