<?xml version="1.0" standalone="no"?>
<!DOCTYPE svg PUBLIC "-//W3C//DTD SVG 20010904//EN"
 "http://www.w3.org/TR/2001/REC-SVG-20010904/DTD/svg10.dtd">
<svg version="1.0" xmlns="http://www.w3.org/2000/svg"
 width="512.000000pt" height="512.000000pt" viewBox="0 0 512.000000 512.000000"
 preserveAspectRatio="xMidYMid meet">

<g transform="translate(0.000000,512.000000) scale(0.100000,-0.100000)"
fill="#000000" stroke="none">
<path d="M2610 5100 c-76 -40 -199 -244 -222 -369 -28 -148 35 -307 192 -486
57 -64 100 -144 100 -185 0 -37 -43 -122 -84 -168 -39 -43 -66 -98 -66 -134 1
-47 37 -106 79 -127 50 -26 91 -26 140 -1 83 42 202 235 224 363 22 133 -33
294 -148 427 -78 91 -133 176 -141 217 -10 54 27 133 110 238 59 73 41 176
-40 222 -47 27 -97 28 -144 3z"/>
<path d="M1709 4790 c-21 -11 -60 -50 -88 -87 -201 -265 -183 -482 59 -758 57
-64 100 -144 100 -185 0 -37 -43 -122 -84 -168 -39 -43 -66 -98 -66 -134 1
-47 37 -106 79 -127 50 -26 91 -26 140 -1 83 42 202 235 224 363 22 134 -32
292 -150 431 -119 140 -150 199 -139 260 6 33 59 119 112 184 57 69 37 174
-42 219 -48 28 -97 28 -145 3z"/>
<path d="M515 2996 c-84 -36 -112 -134 -64 -213 26 -42 35 -110 49 -368 22
-429 52 -661 116 -904 58 -222 139 -410 252 -581 69 -106 250 -289 355 -359
212 -142 471 -230 767 -260 55 -5 -216 -9 -754 -10 l-838 -1 -39 -22 c-41 -23
-79 -84 -79 -128 0 -44 38 -105 79 -128 l39 -22 1833 0 1834 0 39 23 c102 58
98 211 -8 261 -30 14 -121 16 -873 17 -529 1 -807 5 -753 10 199 20 449 88
597 162 172 87 335 218 452 365 l70 88 95 12 c191 26 431 106 580 193 231 136
418 340 502 548 51 127 67 207 68 351 0 112 -3 148 -22 215 -66 230 -230 396
-442 446 -73 17 -228 15 -313 -5 -38 -9 -70 -16 -73 -16 -14 0 0 68 22 111 45
84 19 175 -60 213 -31 14 -126 16 -950 16 l-916 0 0 -344 0 -344 43 -48 c123
-137 202 -258 236 -361 19 -57 21 -85 21 -325 0 -298 -3 -314 -76 -355 -38
-22 -46 -23 -373 -23 -324 0 -334 1 -372 22 -25 14 -46 37 -60 64 -19 41 -20
57 -17 316 l3 273 41 85 c48 97 117 198 198 287 l56 61 0 346 0 346 -617 0
c-491 -1 -624 -4 -648 -14z m3818 -608 c47 -14 119 -77 152 -132 61 -105 69
-275 20 -423 -83 -246 -294 -436 -596 -537 -104 -35 -139 -43 -139 -30 0 4 12
39 26 78 78 217 127 496 160 918 l6 77 65 26 c110 44 208 51 306 23z"/>
<path d="M1870 1959 c-89 -119 -90 -122 -90 -296 l0 -153 150 0 150 0 0 158 0
159 -41 64 c-51 79 -98 139 -109 139 -4 0 -32 -32 -60 -71z"/>
</g>
</svg>
