<?xml version="1.0" standalone="no"?>
<!DOCTYPE svg PUBLIC "-//W3C//DTD SVG 20010904//EN"
 "http://www.w3.org/TR/2001/REC-SVG-20010904/DTD/svg10.dtd">
<svg version="1.0" xmlns="http://www.w3.org/2000/svg"
 width="512.000000pt" height="512.000000pt" viewBox="0 0 512.000000 512.000000"
 preserveAspectRatio="xMidYMid meet">

<g transform="translate(0.000000,512.000000) scale(0.100000,-0.100000)"
fill="#000000" stroke="none">
<path d="M2315 5109 c-597 -61 -1141 -318 -1563 -739 -1002 -1000 -1002 -2620
0 -3620 406 -405 901 -648 1493 -732 119 -17 512 -16 635 1 579 80 1090 331
1489 732 406 408 649 903 733 1494 17 118 17 512 0 630 -85 593 -327 1088
-734 1495 -393 394 -891 643 -1453 726 -122 18 -477 26 -600 13z m95 -1271 l0
-383 210 210 210 210 107 -108 108 -107 -318 -318 -317 -317 0 -275 0 -275
210 210 210 210 107 -108 108 -107 -318 -318 -317 -317 0 -423 0 -422 58 0
c124 1 291 20 375 45 426 123 737 499 764 923 l6 92 148 0 149 0 0 -72 c0
-191 -84 -465 -198 -642 -174 -273 -427 -471 -725 -571 -172 -57 -249 -67
-579 -72 l-298 -5 0 423 0 424 -248 -248 -247 -247 -108 108 -107 107 355 355
355 355 0 275 0 275 -250 -250 -251 -250 -105 110 -104 110 355 355 355 355 0
533 0 532 150 0 150 0 0 -382z"/>
</g>
</svg>
