<?xml version="1.0" standalone="no"?>
<!DOCTYPE svg PUBLIC "-//W3C//DTD SVG 20010904//EN"
 "http://www.w3.org/TR/2001/REC-SVG-20010904/DTD/svg10.dtd">
<svg version="1.0" xmlns="http://www.w3.org/2000/svg"
 width="512.000000pt" height="512.000000pt" viewBox="0 0 512.000000 512.000000"
 preserveAspectRatio="xMidYMid meet">

<g transform="translate(0.000000,512.000000) scale(0.100000,-0.100000)"
fill="#000000" stroke="none">
<path d="M4122 5108 c-51 -26 -41 -69 63 -278 177 -354 246 -679 232 -1085 -7
-200 -32 -394 -77 -602 -36 -172 -55 -225 -89 -262 -58 -62 -124 -60 -302 10
-179 70 -436 135 -726 183 -139 23 -285 41 -1068 126 -409 45 -615 92 -659
153 -19 25 -19 32 -7 88 7 34 27 89 46 124 48 91 59 155 52 319 l-5 139 35 90
c82 213 83 344 2 429 -28 30 -43 38 -72 38 -48 0 -84 -37 -143 -148 -101 -186
-156 -257 -228 -294 -35 -18 -51 -20 -135 -13 -127 9 -153 21 -189 87 -76 135
-97 170 -142 226 -55 67 -131 122 -170 122 -37 0 -65 -30 -86 -92 -23 -67 -23
-247 -1 -360 11 -53 14 -104 10 -166 -8 -121 14 -214 73 -318 58 -100 61 -110
85 -223 28 -137 47 -312 54 -506 12 -327 49 -590 104 -732 52 -134 161 -263
376 -446 140 -120 213 -195 241 -248 33 -64 196 -468 230 -567 46 -139 103
-370 110 -453 l7 -65 -49 -42 c-27 -23 -69 -57 -94 -75 -63 -46 -93 -93 -86
-136 14 -87 83 -127 221 -125 101 1 167 23 202 67 14 18 32 85 58 214 21 103
47 233 58 288 19 90 21 140 22 495 1 366 3 401 23 475 22 87 45 115 92 115
129 0 457 -128 680 -265 52 -32 189 -114 304 -183 283 -168 333 -216 324 -311
-6 -65 -46 -119 -158 -218 -115 -102 -138 -115 -199 -112 -138 7 -169 4 -198
-17 -64 -48 -83 -126 -42 -171 108 -117 360 -64 649 138 101 70 286 258 331
337 40 68 45 68 74 -1 28 -66 16 -128 -63 -332 -65 -169 -70 -174 -162 -191
-94 -18 -133 -50 -133 -111 0 -60 27 -102 81 -125 l46 -21 101 20 c169 34 199
55 250 179 18 43 59 142 92 219 118 274 179 493 171 606 -4 53 -8 62 -54 111
-55 59 -113 137 -138 185 -24 48 -20 83 17 138 54 80 157 263 199 351 50 107
65 177 78 369 13 200 21 244 75 430 105 359 145 583 165 930 23 383 -26 806
-126 1087 -65 182 -175 343 -267 390 -47 24 -133 32 -165 16z"/>
</g>
</svg>
